<svg width="34" height="34" viewBox="0 0 34 34" fill="none" xmlns="http://www.w3.org/2000/svg">
<g clip-path="url(#clip0_265_10958)">
<circle cx="17" cy="17" r="17" fill="#FEFBEB"/>
<path d="M17.3021 29.0635C18.3698 29.0635 19.2352 28.198 19.2352 27.1304C19.2352 26.0627 18.3698 25.1973 17.3021 25.1973C16.2345 25.1973 15.369 26.0627 15.369 27.1304C15.369 28.198 16.2345 29.0635 17.3021 29.0635Z" fill="white" stroke="#121212" stroke-width="1.28873" stroke-linecap="round" stroke-linejoin="round"/>
<path d="M11.5802 25.6608C14.6621 25.6608 17.1604 21.4835 17.1604 16.3304C17.1604 11.1774 14.6621 7 11.5802 7C8.49835 7 6 11.1774 6 16.3304C6 21.4835 8.49835 25.6608 11.5802 25.6608Z" fill="white" stroke="#121212" stroke-width="1.28873" stroke-linecap="round" stroke-linejoin="round"/>
<path d="M11.5802 22.4255C13.5945 22.4255 15.2273 19.6964 15.2273 16.3298C15.2273 12.9633 13.5945 10.2341 11.5802 10.2341C9.56598 10.2341 7.93311 12.9633 7.93311 16.3298C7.93311 19.6964 9.56598 22.4255 11.5802 22.4255Z" fill="#121212"/>
<path d="M22.8823 25.6608C25.9642 25.6608 28.4625 21.4835 28.4625 16.3304C28.4625 11.1774 25.9642 7 22.8823 7C19.8005 7 17.3021 11.1774 17.3021 16.3304C17.3021 21.4835 19.8005 25.6608 22.8823 25.6608Z" fill="white" stroke="#121212" stroke-width="1.28873" stroke-linecap="round" stroke-linejoin="round"/>
<path d="M22.8823 22.4255C24.8966 22.4255 26.5294 19.6964 26.5294 16.3298C26.5294 12.9633 24.8966 10.2341 22.8823 10.2341C20.8681 10.2341 19.2352 12.9633 19.2352 16.3298C19.2352 19.6964 20.8681 22.4255 22.8823 22.4255Z" fill="#121212"/>
</g>
<defs>
<clipPath id="clip0_265_10958">
<rect width="34" height="34" fill="white"/>
</clipPath>
</defs>
</svg>
