<svg width="100" height="100" viewBox="0 0 100 100" fill="none" xmlns="http://www.w3.org/2000/svg">
<g clip-path="url(#clip0_281_10969)">
<circle cx="50" cy="50" r="50" fill="#FBF2B7"/>
<path d="M35.2838 70.7665C43.1725 70.7665 49.5676 60.0736 49.5676 46.8833C49.5676 33.6929 43.1725 23 35.2838 23C27.3951 23 21 33.6929 21 46.8833C21 60.0736 27.3951 70.7665 35.2838 70.7665Z" fill="white" stroke="#121212" stroke-width="3.29879" stroke-linecap="round" stroke-linejoin="round"/>
<path d="M64.2146 70.7665C72.1033 70.7665 78.4983 60.0736 78.4983 46.8833C78.4983 33.6929 72.1033 23 64.2146 23C56.3259 23 49.9308 33.6929 49.9308 46.8833C49.9308 60.0736 56.3259 70.7665 64.2146 70.7665Z" fill="white" stroke="#121212" stroke-width="3.29879" stroke-linecap="round" stroke-linejoin="round"/>
<path d="M62 72C62 74.7667 56.64 77 50 77C43.36 77 38 74.7667 38 72" fill="white" stroke="#121212" stroke-width="3.29879" stroke-linecap="round" stroke-linejoin="round"/>
<path d="M35.482 62.4844C40.6379 62.4844 44.8175 55.4986 44.8175 46.8811C44.8175 38.2637 40.6379 31.2778 35.482 31.2778C30.3261 31.2778 26.1464 38.2637 26.1464 46.8811C26.1464 55.4986 30.3261 62.4844 35.482 62.4844Z" fill="#121212"/>
<path d="M64.4124 62.4844C69.5683 62.4844 73.748 55.4986 73.748 46.8811C73.748 38.2637 69.5683 31.2778 64.4124 31.2778C59.2565 31.2778 55.0768 38.2637 55.0768 46.8811C55.0768 55.4986 59.2565 62.4844 64.4124 62.4844Z" fill="#121212"/>
<path d="M70.0534 46.8816C66.9525 49.2237 65.7979 51.137 64.4124 56.3161C63.0269 51.104 61.8723 49.2237 58.7715 46.8816C61.8723 44.5394 63.0269 42.6261 64.4124 37.447C65.7979 42.6591 66.9525 44.5394 70.0534 46.8816Z" fill="white"/>
<path d="M41.1226 45.4345C38.0217 47.7767 36.8671 49.69 35.4817 54.8691C34.0962 49.657 32.9416 47.7767 29.8407 45.4345C32.9416 43.0924 34.0962 41.1791 35.4817 36C36.8671 41.2121 38.0217 43.0924 41.1226 45.4345Z" fill="white"/>
<path d="M32.0293 61.774C26.3033 57.2697 19.1461 56.8158 16.0432 60.7602L36.779 77.0719C39.8819 73.1274 37.7554 66.2783 32.0293 61.774Z" fill="#FBB7BB"/>
<path d="M20.3162 75.3275C26.0137 79.8679 33.1679 80.3669 36.2956 76.4422L15.6632 60C12.5355 63.9248 14.6187 70.7871 20.3162 75.3275Z" fill="#FBB7BB"/>
<path d="M36.779 77.0719C39.8819 73.1274 37.7554 66.2783 32.0293 61.774C26.3033 57.2697 19.1461 56.8158 16.0432 60.7602" stroke="#121212" stroke-width="3.29879" stroke-linecap="round" stroke-linejoin="round"/>
<path d="M67.3679 61.774C73.0939 57.2697 80.2511 56.8158 83.354 60.7602L62.6182 77.0719C59.5154 73.1274 61.6419 66.2783 67.3679 61.774Z" fill="#FBB7BB"/>
<path d="M79.081 75.3275C73.3835 79.8679 66.2293 80.3669 63.1016 76.4422L83.734 60C86.8617 63.9248 84.7785 70.7871 79.081 75.3275Z" fill="#FBB7BB"/>
<path d="M62.6182 77.0719C59.5154 73.1274 61.6419 66.2783 67.3679 61.774C73.0939 57.2697 80.2511 56.8158 83.354 60.7602" stroke="#121212" stroke-width="3.29879" stroke-linecap="round" stroke-linejoin="round"/>
</g>
<defs>
<clipPath id="clip0_281_10969">
<rect width="100" height="100" fill="white"/>
</clipPath>
</defs>
</svg>
