<svg width="27" height="27" viewBox="0 0 27 27" fill="none" xmlns="http://www.w3.org/2000/svg">
<path d="M24.0897 15.5972C24.6051 15.5508 25 15.1187 25 14.6012V12.3988C25 11.8813 24.6051 11.4492 24.0897 11.4028L22.6916 11.277C22.2736 11.2393 21.9288 10.9426 21.7878 10.5473C21.6879 10.2674 21.5741 9.99388 21.4475 9.72778C21.2676 9.34961 21.302 8.89721 21.5702 8.57563L22.4722 7.4943C22.8036 7.09699 22.7772 6.51249 22.4114 6.14664L20.8534 4.58861C20.4875 4.22276 19.903 4.19639 19.5057 4.5278L18.4258 5.42855C18.1035 5.6974 17.65 5.73115 17.271 5.55071C17.0056 5.42435 16.7329 5.31108 16.4534 5.21168C16.0577 5.07096 15.7606 4.72612 15.723 4.30783L15.5972 2.91033C15.5508 2.39488 15.1187 2 14.6012 2H12.3988C11.8813 2 11.4492 2.39488 11.4028 2.91033L11.277 4.30838C11.2393 4.7264 10.9426 5.07117 10.5473 5.21219C10.2674 5.31207 9.99388 5.42589 9.72778 5.55248C9.34961 5.73239 8.89721 5.69802 8.57563 5.42977L7.4943 4.5278C7.09699 4.19639 6.51249 4.22276 6.14664 4.58861L4.58861 6.14664C4.22276 6.51249 4.19639 7.09699 4.5278 7.4943L5.42855 8.57416C5.6974 8.89647 5.73115 9.35004 5.55071 9.72899C5.42435 9.99436 5.31108 10.2671 5.21168 10.5466C5.07096 10.9423 4.72612 11.2394 4.30783 11.277L2.91033 11.4028C2.39488 11.4492 2 11.8813 2 12.3988V14.6012C2 15.1187 2.39488 15.5508 2.91033 15.5972L4.30838 15.723C4.7264 15.7607 5.07117 16.0574 5.21219 16.4527C5.31207 16.7326 5.42589 17.0061 5.55248 17.2722C5.73239 17.6504 5.69802 18.1028 5.42977 18.4244L4.5278 19.5057C4.19639 19.903 4.22276 20.4875 4.58861 20.8534L6.14664 22.4114C6.51249 22.7772 7.09699 22.8036 7.4943 22.4722L8.57416 21.5715C8.89647 21.3026 9.35004 21.2689 9.72899 21.4493C9.99436 21.5757 10.2671 21.6889 10.5466 21.7883C10.9423 21.929 11.2394 22.2739 11.277 22.6922L11.4028 24.0897C11.4492 24.6051 11.8813 25 12.3988 25H14.6012C15.1187 25 15.5508 24.6051 15.5972 24.0897L15.723 22.6916C15.7607 22.2736 16.0574 21.9288 16.4527 21.7878C16.7326 21.6879 17.0061 21.5741 17.2722 21.4475C17.6504 21.2676 18.1028 21.302 18.4244 21.5702L19.5057 22.4722C19.903 22.8036 20.4875 22.7772 20.8534 22.4114L22.4114 20.8534C22.7772 20.4875 22.8036 19.903 22.4722 19.5057L21.5715 18.4258C21.3026 18.1035 21.2689 17.65 21.4493 17.271C21.5757 17.0056 21.6889 16.7329 21.7883 16.4534C21.929 16.0577 22.2739 15.7606 22.6922 15.723L24.0897 15.5972ZM13.5011 16.045C12.0951 16.045 10.9572 14.9049 10.9572 13.5011C10.9572 12.0973 12.0973 10.9572 13.5011 10.9572C14.9049 10.9572 16.045 12.0973 16.045 13.5011C16.045 14.9049 14.9049 16.045 13.5011 16.045Z" stroke="white" stroke-width="2" stroke-miterlimit="10" stroke-linejoin="round"/>
</svg>
