<svg width="100" height="100" viewBox="0 0 100 100" fill="none" xmlns="http://www.w3.org/2000/svg">
<g clip-path="url(#clip0_281_11003)">
<circle cx="50" cy="50" r="50" fill="#00A170"/>
<path d="M54.8788 72.0518C54.8788 74.7898 52.6686 76.9999 49.9306 76.9999C47.1926 76.9999 44.9824 74.7898 44.9824 72.0518" fill="white" stroke="#121212" stroke-width="3.29879" stroke-linecap="round" stroke-linejoin="round"/>
<path d="M51.7712 55.76C54.4693 48.347 46.6085 38.6804 34.2136 34.169C21.8187 29.6577 9.58344 32.0099 6.88534 39.4229C4.18724 46.8358 12.048 56.5024 24.4429 61.0138C36.8378 65.5251 49.0731 63.1729 51.7712 55.76Z" fill="#121212" stroke="#121212" stroke-width="3.29879" stroke-linecap="round" stroke-linejoin="round"/>
<path d="M49.5835 55.7595C52.2816 63.1724 64.5169 65.5247 76.9117 61.0133C89.3066 56.5019 97.1674 46.8353 94.4693 39.4224C91.7712 32.0094 79.5359 29.6572 67.1411 34.1686C54.7462 38.6799 46.8854 48.3465 49.5835 55.7595Z" fill="#121212" stroke="#121212" stroke-width="3.29879" stroke-linecap="round" stroke-linejoin="round"/>
<path d="M64 57L50 42V66L64 57Z" fill="#00A170"/>
<path d="M50 42L64 57L54.5 63.5" stroke="#121212" stroke-width="3.3" stroke-linecap="round" stroke-linejoin="round"/>
<path d="M92.0001 62.8124C92.4096 62.5003 92.65 62.0149 92.65 61.5C92.65 60.9851 92.4096 60.4997 92.0001 60.1877C89.9026 58.5891 88.5664 57.2282 87.5056 55.446C86.422 53.6257 85.5679 51.2701 84.5956 47.5796C84.4048 46.8555 83.7502 46.3506 83.0013 46.35C82.2524 46.3494 81.5971 46.8533 81.4051 47.5771C80.4328 51.2445 79.5784 53.602 78.4934 55.4301C77.4312 57.2198 76.0936 58.592 73.9999 60.1877C73.5904 60.4997 73.35 60.9851 73.35 61.5C73.35 62.0149 73.5904 62.5003 73.9999 62.8124C76.0974 64.4109 77.4337 65.7718 78.4945 67.554C79.578 69.3743 80.4322 71.7299 81.4045 75.4204C81.5953 76.1445 82.2499 76.6494 82.9987 76.65C83.7476 76.6506 84.403 76.1467 84.5949 75.4229C85.5673 71.7555 86.4216 69.398 87.5066 67.5699C88.5688 65.7802 89.9064 64.408 92.0001 62.8124Z" fill="white" stroke="#121212" stroke-width="3.3" stroke-linejoin="round"/>
<path d="M27.2763 31.7512C27.6892 31.4394 27.9319 30.9519 27.9319 30.4345C27.9319 29.9172 27.6892 29.4297 27.2763 29.1179C25.827 28.0232 24.9368 27.1165 24.2326 25.944C23.5058 24.7337 22.9179 23.1431 22.2356 20.5761C22.0435 19.8537 21.3898 19.3506 20.6423 19.35C19.8947 19.3494 19.2402 19.8515 19.047 20.5736C18.3646 23.1246 17.7765 24.7172 17.0482 25.9334C16.3426 27.1117 15.4511 28.0261 14.0055 29.1179C13.5927 29.4297 13.35 29.9172 13.35 30.4345C13.35 30.9519 13.5927 31.4394 14.0055 31.7512C15.4549 32.8459 16.3451 33.7526 17.0492 34.9251C17.7761 36.1354 18.364 37.726 19.0463 40.293C19.2384 41.0154 19.8921 41.5185 20.6397 41.5191C21.3872 41.5197 22.0417 41.0176 22.2349 40.2955C22.9174 37.7445 23.5054 36.1519 24.2337 34.9357C24.9393 33.7574 25.8308 32.843 27.2763 31.7512Z" fill="white" stroke="#121212" stroke-width="3.3" stroke-linejoin="round"/>
</g>
<defs>
<clipPath id="clip0_281_11003">
<rect width="100" height="100" fill="white"/>
</clipPath>
</defs>
</svg>
