<svg width="34" height="34" viewBox="0 0 34 34" fill="none" xmlns="http://www.w3.org/2000/svg">
<g clip-path="url(#clip0_263_10873)">
<circle cx="17" cy="17" r="17" fill="#F5DF4C"/>
<path d="M18.8455 25.5986C18.8455 26.6368 18.0075 27.4748 16.9694 27.4748C15.9312 27.4748 15.0932 26.6368 15.0932 25.5986" stroke="#121212" stroke-width="1.25078" stroke-linecap="round" stroke-linejoin="round"/>
<path d="M11.4159 25.1113C14.407 25.1113 16.8318 21.0569 16.8318 16.0556C16.8318 11.0544 14.407 7 11.4159 7C8.42477 7 6 11.0544 6 16.0556C6 21.0569 8.42477 25.1113 11.4159 25.1113Z" fill="white" stroke="#121212" stroke-width="1.25078" stroke-linecap="round" stroke-linejoin="round"/>
<path d="M11.491 21.9711C13.4459 21.9711 15.0307 19.3223 15.0307 16.0549C15.0307 12.7874 13.4459 10.1387 11.491 10.1387C9.53605 10.1387 7.95126 12.7874 7.95126 16.0549C7.95126 19.3223 9.53605 21.9711 11.491 21.9711Z" fill="#121212"/>
<path d="M22.3853 25.1113C25.3764 25.1113 27.8012 21.0569 27.8012 16.0556C27.8012 11.0544 25.3764 7 22.3853 7C19.3942 7 16.9694 11.0544 16.9694 16.0556C16.9694 21.0569 19.3942 25.1113 22.3853 25.1113Z" fill="white" stroke="#121212" stroke-width="1.25078" stroke-linecap="round" stroke-linejoin="round"/>
<path d="M22.4603 21.9711C24.4153 21.9711 26 19.3223 26 16.0549C26 12.7874 24.4153 10.1387 22.4603 10.1387C20.5054 10.1387 18.9206 12.7874 18.9206 16.0549C18.9206 19.3223 20.5054 21.9711 22.4603 21.9711Z" fill="#121212"/>
<path d="M24.5992 16.055C23.4234 16.9431 22.9857 17.6685 22.4603 19.6322C21.935 17.656 21.4972 16.9431 20.3215 16.055C21.4972 15.167 21.935 14.4415 22.4603 12.4778C22.9857 14.454 23.4234 15.167 24.5992 16.055Z" fill="white"/>
<path d="M13.6298 16.055C12.454 16.9431 12.0163 17.6685 11.491 19.6322C10.9656 17.656 10.5278 16.9431 9.35211 16.055C10.5278 15.167 10.9656 14.4415 11.491 12.4778C12.0163 14.454 12.454 15.167 13.6298 16.055Z" fill="white"/>
</g>
<defs>
<clipPath id="clip0_263_10873">
<rect width="34" height="34" fill="white"/>
</clipPath>
</defs>
</svg>
