<svg width="125" height="125" viewBox="0 0 125 125" fill="none" xmlns="http://www.w3.org/2000/svg">
<g clip-path="url(#clip0_374_11096)">
<circle cx="63" cy="75" r="50" fill="#F5DF4C"/>
<path d="M63 4C37.5949 4 17 22.3563 17 45H109C109 22.3563 88.4051 4 63 4Z" fill="white" stroke="#121212" stroke-width="3.3"/>
<path d="M67.8788 97.0518C67.8788 99.7898 65.6686 102 62.9306 102C60.1926 102 57.9824 99.7898 57.9824 97.0518" stroke="#121212" stroke-width="3.29879" stroke-linecap="round" stroke-linejoin="round"/>
<path d="M48.2838 95.7665C56.1725 95.7665 62.5676 85.0736 62.5676 71.8833C62.5676 58.6929 56.1725 48 48.2838 48C40.3951 48 34 58.6929 34 71.8833C34 85.0736 40.3951 95.7665 48.2838 95.7665Z" fill="white" stroke="#121212" stroke-width="3.29879" stroke-linecap="round" stroke-linejoin="round"/>
<path d="M48.482 87.4844C53.6379 87.4844 57.8175 80.4986 57.8175 71.8811C57.8175 63.2637 53.6379 56.2778 48.482 56.2778C43.3261 56.2778 39.1464 63.2637 39.1464 71.8811C39.1464 80.4986 43.3261 87.4844 48.482 87.4844Z" fill="#121212"/>
<path d="M77.2146 95.7665C85.1033 95.7665 91.4983 85.0736 91.4983 71.8833C91.4983 58.6929 85.1033 48 77.2146 48C69.3259 48 62.9308 58.6929 62.9308 71.8833C62.9308 85.0736 69.3259 95.7665 77.2146 95.7665Z" fill="white" stroke="#121212" stroke-width="3.29879" stroke-linecap="round" stroke-linejoin="round"/>
<path d="M77.4124 87.4844C82.5683 87.4844 86.748 80.4986 86.748 71.8811C86.748 63.2637 82.5683 56.2778 77.4124 56.2778C72.2565 56.2778 68.0768 63.2637 68.0768 71.8811C68.0768 80.4986 72.2565 87.4844 77.4124 87.4844Z" fill="#121212"/>
<path d="M83.0534 71.8816C79.9525 74.2237 78.7979 76.137 77.4124 81.3161C76.0269 76.104 74.8723 74.2237 71.7715 71.8816C74.8723 69.5394 76.0269 67.6261 77.4124 62.447C78.7979 67.6591 79.9525 69.5394 83.0534 71.8816Z" fill="white"/>
<path d="M54.1226 70.4345C51.0217 72.7767 49.8671 74.69 48.4817 79.8691C47.0962 74.657 45.9416 72.7767 42.8407 70.4345C45.9416 68.0924 47.0962 66.1791 48.4817 61C49.8671 66.2121 51.0217 68.0924 54.1226 70.4345Z" fill="white"/>
<path d="M77 82L63 67V91L77 82Z" fill="#F5DF4C"/>
<path d="M63 67L77 82L67.5 88.5" stroke="#121212" stroke-width="3.3" stroke-linecap="square" stroke-linejoin="round"/>
<rect x="13" y="43" width="100" height="10" rx="2" fill="white" stroke="#121212" stroke-width="3.3"/>
<path fill-rule="evenodd" clip-rule="evenodd" d="M66.5882 24.4118V17H60.4118L60.4118 24.4118H53V30.5882H60.4118L60.4118 38H66.5882V30.5882H74V24.4118H66.5882Z" fill="#00A170"/>
<path d="M66.5882 17H68.2382C68.2382 16.0887 67.4995 15.35 66.5882 15.35V17ZM66.5882 24.4118H64.9382C64.9382 25.323 65.677 26.0618 66.5882 26.0618V24.4118ZM60.4118 17V15.35C59.5005 15.35 58.7618 16.0887 58.7618 17L60.4118 17ZM60.4118 24.4118V26.0618C61.323 26.0618 62.0618 25.323 62.0618 24.4118L60.4118 24.4118ZM53 24.4118V22.7618C52.0887 22.7618 51.35 23.5005 51.35 24.4118H53ZM53 30.5882H51.35C51.35 31.4995 52.0887 32.2382 53 32.2382V30.5882ZM60.4118 30.5882L62.0618 30.5882C62.0618 30.1506 61.8879 29.7309 61.5785 29.4215C61.2691 29.1121 60.8494 28.9382 60.4118 28.9382V30.5882ZM60.4118 38L58.7618 38C58.7618 38.4376 58.9356 38.8573 59.245 39.1667C59.5545 39.4762 59.9742 39.65 60.4118 39.65V38ZM66.5882 38V39.65C67.4995 39.65 68.2382 38.9113 68.2382 38H66.5882ZM66.5882 30.5882V28.9382C65.677 28.9382 64.9382 29.677 64.9382 30.5882H66.5882ZM74 30.5882V32.2382C74.9113 32.2382 75.65 31.4995 75.65 30.5882H74ZM74 24.4118H75.65C75.65 23.5005 74.9113 22.7618 74 22.7618V24.4118ZM64.9382 17V24.4118H68.2382V17H64.9382ZM60.4118 18.65H66.5882V15.35H60.4118V18.65ZM62.0618 24.4118L62.0618 17L58.7618 17L58.7618 24.4118L62.0618 24.4118ZM53 26.0618H60.4118V22.7618H53V26.0618ZM54.65 30.5882V24.4118H51.35V30.5882H54.65ZM60.4118 28.9382H53V32.2382H60.4118V28.9382ZM62.0618 38L62.0618 30.5882L58.7618 30.5882L58.7618 38L62.0618 38ZM66.5882 36.35H60.4118V39.65H66.5882V36.35ZM64.9382 30.5882V38H68.2382V30.5882H64.9382ZM74 28.9382H66.5882V32.2382H74V28.9382ZM72.35 24.4118V30.5882H75.65V24.4118H72.35ZM66.5882 26.0618H74V22.7618H66.5882V26.0618Z" fill="#121212"/>
<rect x="53" y="11" width="11" height="10" rx="2" transform="rotate(-90 53 11)" fill="white"/>
<rect x="63" y="11" width="11" height="10" rx="2" transform="rotate(-90 63 11)" fill="white"/>
<path d="M63 13L63 2C63 0.89543 63.8954 -1.95703e-08 65 -4.37114e-08L71 -1.74846e-07C72.1046 -1.98987e-07 73 0.89543 73 2L73 10" stroke="#121212" stroke-width="3.3" stroke-linecap="round"/>
<path d="M53 10L53 2C53 0.89543 53.8954 -1.95703e-08 55 -4.37114e-08L61 -1.74846e-07C62.1046 -1.98987e-07 63 0.89543 63 2L63 13" stroke="#121212" stroke-width="3.3" stroke-linecap="round"/>
</g>
<defs>
<clipPath id="clip0_374_11096">
<rect width="125" height="125" fill="white"/>
</clipPath>
</defs>
</svg>
