<svg width="34" height="34" viewBox="0 0 34 34" fill="none" xmlns="http://www.w3.org/2000/svg">
<g clip-path="url(#clip0_265_10948)">
<circle cx="17" cy="17" r="17" fill="#FBF2B7"/>
<path d="M19.1975 27.0723C19.1975 28.1389 18.3365 28.9998 17.2699 28.9998C16.2033 28.9998 15.3423 28.1389 15.3423 27.0723H19.1975Z" fill="white" stroke="#121212" stroke-width="1.28505" stroke-linecap="round" stroke-linejoin="round"/>
<path d="M11.5643 25.6076C14.6373 25.6076 17.1286 21.4421 17.1286 16.3038C17.1286 11.1654 14.6373 7 11.5643 7C8.49121 7 6 11.1654 6 16.3038C6 21.4421 8.49121 25.6076 11.5643 25.6076Z" fill="white" stroke="#121212" stroke-width="1.28505" stroke-linecap="round" stroke-linejoin="round"/>
<path d="M11.6286 22.3814C13.6371 22.3814 15.2653 19.6601 15.2653 16.3032C15.2653 12.9462 13.6371 10.2249 11.6286 10.2249C9.62009 10.2249 7.99188 12.9462 7.99188 16.3032C7.99188 19.6601 9.62009 22.3814 11.6286 22.3814Z" fill="#121212"/>
<path d="M22.8214 25.6076C25.8944 25.6076 28.3856 21.4421 28.3856 16.3038C28.3856 11.1654 25.8944 7 22.8214 7C19.7483 7 17.2571 11.1654 17.2571 16.3038C17.2571 21.4421 19.7483 25.6076 22.8214 25.6076Z" fill="white" stroke="#121212" stroke-width="1.28505" stroke-linecap="round" stroke-linejoin="round"/>
<path d="M22.8984 22.3814C24.9069 22.3814 26.5351 19.6601 26.5351 16.3032C26.5351 12.9462 24.9069 10.2249 22.8984 10.2249C20.8899 10.2249 19.2617 12.9462 19.2617 16.3032C19.2617 19.6601 20.8899 22.3814 22.8984 22.3814Z" fill="#121212"/>
</g>
<defs>
<clipPath id="clip0_265_10948">
<rect width="34" height="34" fill="white"/>
</clipPath>
</defs>
</svg>
