<svg width="262" height="120" viewBox="0 0 262 120" fill="none" xmlns="http://www.w3.org/2000/svg">
<g clip-path="url(#clip0_281_11082)">
<path d="M16.38 94.7578C16.38 97.2778 16.68 98.4778 18 98.9578C18.9 99.2578 19.68 99.1978 21.6 98.5378L23.34 107.718C20.22 109.158 15.18 109.698 11.64 108.318C7.5 106.638 6 102.978 6 96.6778V84.9778H0.6V75.6178H6V64.0978H16.38V75.6178H23.1V84.9778H16.38V94.7578ZM42.0834 99.9178C46.1034 99.9178 49.7634 97.3378 49.7634 92.0578C49.7634 87.0178 46.1034 84.1978 42.0834 84.1978C38.1834 84.1978 34.6434 87.0178 34.6434 92.0578C34.6434 97.3378 38.1834 99.9178 42.0834 99.9178ZM42.2034 109.398C31.7034 109.398 24.2634 102.498 24.2634 92.0578C24.2634 81.1978 32.3634 74.7178 42.2034 74.7178C52.0434 74.7178 60.1434 81.1978 60.1434 92.0578C60.1434 102.498 52.7034 109.398 42.2034 109.398ZM77.6911 109.098C68.9911 109.098 61.9711 103.938 62.0911 92.2978C62.2711 81.0178 68.7511 74.5978 77.5111 75.0178C81.4111 75.1378 84.6511 76.6978 86.5111 78.6778V64.0978H96.8311V108.618H86.5111V105.678C84.4711 107.778 81.2311 109.098 77.6911 109.098ZM79.7911 99.9178C83.7511 99.6778 86.1511 96.6178 86.1511 92.8978C86.1511 87.6178 83.0911 84.1978 78.9511 84.1978C75.8311 84.1978 72.3511 86.5378 72.3511 91.9978C72.3511 98.0578 76.0711 100.158 79.7911 99.9178ZM117.379 99.9178C121.399 99.9178 125.059 97.3378 125.059 92.0578C125.059 87.0178 121.399 84.1978 117.379 84.1978C113.479 84.1978 109.939 87.0178 109.939 92.0578C109.939 97.3378 113.479 99.9178 117.379 99.9178ZM117.499 109.398C106.999 109.398 99.5588 102.498 99.5588 92.0578C99.5588 81.1978 107.659 74.7178 117.499 74.7178C127.339 74.7178 135.439 81.1978 135.439 92.0578C135.439 102.498 127.999 109.398 117.499 109.398ZM171.646 109.158C168.466 110.058 164.566 109.938 160.066 109.218C156.946 108.618 153.406 107.058 150.286 104.898L154.486 96.7378C158.386 98.7778 162.046 100.278 165.526 100.758C167.746 101.238 168.226 98.5378 166.246 97.6978C163.666 96.4378 160.246 95.7778 156.106 93.2578C152.146 90.8578 150.166 85.9378 152.206 81.1378C153.706 77.1778 157.366 74.5978 164.026 74.3578C169.366 74.1778 173.926 75.7378 178.426 79.2178L173.026 86.7178C169.726 84.6778 167.146 83.8378 164.626 83.6578C163.246 83.4778 162.466 85.8178 163.906 86.5978C166.366 87.9778 169.906 88.6978 173.266 90.4978C177.706 92.7778 179.806 96.3178 179.146 100.938C178.606 105.438 175.786 107.958 171.646 109.158ZM195.625 94.7578C195.625 97.2778 195.925 98.4778 197.245 98.9578C198.145 99.2578 198.925 99.1978 200.845 98.5378L202.585 107.718C199.465 109.158 194.425 109.698 190.885 108.318C186.745 106.638 185.245 102.978 185.245 96.6778V84.9778H179.845V75.6178H185.245V64.0978H195.625V75.6178H202.345V84.9778H195.625V94.7578ZM227.989 108.618V105.738C226.009 107.778 222.889 109.038 219.409 109.038C210.649 109.038 203.569 103.638 203.869 91.9378C204.229 80.1178 211.669 74.5978 219.829 74.9578C223.309 75.1378 226.189 76.6978 227.989 78.6178V75.6178H238.369V108.618H227.989ZM220.669 99.8578C224.209 99.8578 226.909 98.1778 227.629 94.5178C227.689 94.2778 227.749 93.1378 227.749 92.8978C227.749 87.2578 224.749 84.1378 220.909 84.1378C217.669 83.9578 214.249 86.5378 214.249 91.9378C214.249 97.1578 217.009 99.8578 220.669 99.8578ZM260.898 75.3178V85.2178H259.938C257.478 85.2178 254.898 85.8778 252.738 87.4378V108.618H242.058V75.6178H252.738V78.0178C254.958 76.3378 256.938 75.6178 259.818 75.3178H260.898Z" fill="white"/>
<path d="M51.0524 51.1368C64.7966 51.1368 75.9384 39.9949 75.9384 26.2508C75.9384 12.5066 64.7966 1.36475 51.0524 1.36475C37.3082 1.36475 26.1664 12.5066 26.1664 26.2508C26.1664 39.9949 37.3082 51.1368 51.0524 51.1368Z" fill="#F3F3F3"/>
<path d="M103.813 5.00317L115.825 25.8078L127.837 46.6124H103.813H79.7903L91.8019 25.8078L103.813 5.00317Z" fill="#FEFBEB"/>
<path d="M156.575 1.36475L165.368 17.4481L181.461 26.2508L165.368 35.0438L156.575 51.1271L147.782 35.0438L131.689 26.2508L147.782 17.4481L156.575 1.36475Z" fill="#FBF2B7"/>
<path d="M211.478 0L219.563 16.3839L237.634 19.0111L224.556 31.7595L227.649 49.7624L211.478 41.2602L195.308 49.7624L198.39 31.7595L185.312 19.0111L203.393 16.3839L211.478 0Z" fill="#F5DF4C"/>
</g>
<defs>
<clipPath id="clip0_281_11082">
<rect width="262" height="119.778" fill="white"/>
</clipPath>
</defs>
</svg>
