<svg width="117" height="24" viewBox="0 0 117 24" fill="none" xmlns="http://www.w3.org/2000/svg">
<g clip-path="url(#clip0_281_11045)">
<path d="M5.46 15.66C5.46 16.5 5.56 16.9 6 17.06C6.3 17.16 6.56 17.14 7.2 16.92L7.78 19.98C6.74 20.46 5.06 20.64 3.88 20.18C2.5 19.62 2 18.4 2 16.3V12.4H0.2V9.28H2V5.44H5.46V9.28H7.7V12.4H5.46V15.66ZM14.0278 17.38C15.3678 17.38 16.5878 16.52 16.5878 14.76C16.5878 13.08 15.3678 12.14 14.0278 12.14C12.7278 12.14 11.5478 13.08 11.5478 14.76C11.5478 16.52 12.7278 17.38 14.0278 17.38ZM14.0678 20.54C10.5678 20.54 8.08781 18.24 8.08781 14.76C8.08781 11.14 10.7878 8.98 14.0678 8.98C17.3478 8.98 20.0478 11.14 20.0478 14.76C20.0478 18.24 17.5678 20.54 14.0678 20.54ZM25.897 20.44C22.997 20.44 20.657 18.72 20.697 14.84C20.757 11.08 22.917 8.94 25.837 9.08C27.137 9.12 28.217 9.64 28.837 10.3V5.44H32.277V20.28H28.837V19.3C28.157 20 27.077 20.44 25.897 20.44ZM26.597 17.38C27.917 17.3 28.717 16.28 28.717 15.04C28.717 13.28 27.697 12.14 26.317 12.14C25.277 12.14 24.117 12.92 24.117 14.74C24.117 16.76 25.357 17.46 26.597 17.38ZM39.1262 17.38C40.4662 17.38 41.6862 16.52 41.6862 14.76C41.6862 13.08 40.4662 12.14 39.1262 12.14C37.8262 12.14 36.6462 13.08 36.6462 14.76C36.6462 16.52 37.8262 17.38 39.1262 17.38ZM39.1662 20.54C35.6662 20.54 33.1862 18.24 33.1862 14.76C33.1862 11.14 35.8862 8.98 39.1662 8.98C42.4462 8.98 45.1463 11.14 45.1463 14.76C45.1463 18.24 42.6662 20.54 39.1662 20.54ZM57.2155 20.46C56.1555 20.76 54.8555 20.72 53.3555 20.48C52.3155 20.28 51.1355 19.76 50.0955 19.04L51.4955 16.32C52.7955 17 54.0155 17.5 55.1755 17.66C55.9155 17.82 56.0755 16.92 55.4155 16.64C54.5555 16.22 53.4155 16 52.0355 15.16C50.7155 14.36 50.0555 12.72 50.7355 11.12C51.2355 9.8 52.4555 8.94 54.6755 8.86C56.4555 8.8 57.9755 9.32 59.4755 10.48L57.6755 12.98C56.5755 12.3 55.7155 12.02 54.8755 11.96C54.4155 11.9 54.1555 12.68 54.6355 12.94C55.4555 13.4 56.6355 13.64 57.7555 14.24C59.2355 15 59.9355 16.18 59.7155 17.72C59.5355 19.22 58.5955 20.06 57.2155 20.46ZM65.2084 15.66C65.2084 16.5 65.3084 16.9 65.7484 17.06C66.0484 17.16 66.3084 17.14 66.9484 16.92L67.5284 19.98C66.4884 20.46 64.8084 20.64 63.6284 20.18C62.2484 19.62 61.7484 18.4 61.7484 16.3V12.4H59.9484V9.28H61.7484V5.44H65.2084V9.28H67.4484V12.4H65.2084V15.66ZM75.9962 20.28V19.32C75.3362 20 74.2962 20.42 73.1362 20.42C70.2162 20.42 67.8562 18.62 67.9562 14.72C68.0762 10.78 70.5562 8.94 73.2762 9.06C74.4362 9.12 75.3962 9.64 75.9962 10.28V9.28H79.4562V20.28H75.9962ZM73.5562 17.36C74.7362 17.36 75.6362 16.8 75.8762 15.58C75.8962 15.5 75.9162 15.12 75.9162 15.04C75.9162 13.16 74.9162 12.12 73.6362 12.12C72.5562 12.06 71.4162 12.92 71.4162 14.72C71.4162 16.46 72.3362 17.36 73.5562 17.36ZM86.9659 9.18V12.48H86.6459C85.8259 12.48 84.9659 12.7 84.2459 13.22V20.28H80.6859V9.28H84.2459V10.08C84.9859 9.52 85.6459 9.28 86.6059 9.18H86.9659Z" fill="white"/>
<path d="M100.002 4L102.783 9.26787L109 10.1126L104.501 14.2116L105.565 20L100.002 17.2663L94.4386 20L95.4992 14.2116L91 10.1126L97.2201 9.26787L100.002 4Z" fill="white"/>
<path d="M104.258 7.39558L106.889 4.77035L109.52 2.14513L107.261 1.07255L105.003 -2.99904e-05L104.631 3.69777L104.258 7.39558Z" fill="white"/>
<path d="M109.09 6.29894L112.679 5.67863L116.267 5.05831L115.177 3.02915L114.088 0.999977L111.589 3.64946L109.09 6.29894Z" fill="white"/>
</g>
<defs>
<clipPath id="clip0_281_11045">
<rect width="117" height="24" fill="white"/>
</clipPath>
</defs>
</svg>
